<svg xmlns="http://www.w3.org/2000/svg" viewBox="0 0 1581.4 1333"><defs><style>.cls-1{fill:#42424c;}.cls-2{fill:#555560;}.cls-3{fill:#ec71e5;}.cls-4{fill:#9d9db2;}</style></defs><g id="Layer_2" data-name="Layer 2"><g id="Layer_1-2" data-name="Layer 1"><rect class="cls-1" x="184.93" y="87" width="1078.25" height="1246"/><rect class="cls-2" width="184.93" height="1333"/><circle class="cls-3" cx="42.5" cy="42" r="17"/><circle class="cls-3" cx="91.5" cy="42" r="17"/><circle class="cls-3" cx="140.5" cy="42" r="17"/><rect class="cls-2" x="184.93" width="1396.47" height="87"/><rect class="cls-2" x="1263.18" y="87" width="318.22" height="1246"/><rect class="cls-4" x="318.65" y="183.98" width="810.82" height="661.46"/><rect class="cls-1" x="32.97" y="129.92" width="49.38" height="49.38"/><rect class="cls-1" x="102.58" y="129.92" width="49.38" height="49.38"/><rect class="cls-1" x="32.97" y="198.67" width="49.38" height="49.38"/><rect class="cls-1" x="102.58" y="198.67" width="49.38" height="49.38"/><rect class="cls-1" x="32.97" y="267.41" width="49.38" height="49.38"/><rect class="cls-1" x="102.58" y="267.41" width="49.38" height="49.38"/><rect class="cls-1" x="32.97" y="336.16" width="49.38" height="49.38"/><rect class="cls-1" x="102.58" y="336.16" width="49.38" height="49.38"/><rect class="cls-1" x="32.97" y="404.91" width="49.38" height="49.38"/><rect class="cls-1" x="102.58" y="404.91" width="49.38" height="49.38"/><rect class="cls-1" x="32.97" y="473.65" width="49.38" height="49.38"/><rect class="cls-1" x="102.58" y="473.65" width="49.38" height="49.38"/><rect class="cls-1" x="32.97" y="542.4" width="49.38" height="49.38"/><rect class="cls-1" x="102.58" y="542.4" width="49.38" height="49.38"/><rect class="cls-1" x="32.97" y="611.15" width="49.38" height="49.38"/><rect class="cls-1" x="102.58" y="611.15" width="49.38" height="49.38"/><rect class="cls-1" x="32.97" y="687.46" width="74.52" height="74.52"/><path class="cls-4" d="M77.44,729V803.5H152V729Zm60.29,60.29H91.67V743.21h46.06Z"/><rect class="cls-1" x="229.45" y="30.27" width="49.38" height="23.46"/><rect class="cls-1" x="304.01" y="30.27" width="49.38" height="23.46"/><rect class="cls-1" x="378.57" y="30.27" width="137.9" height="23.46"/><rect class="cls-1" x="540.52" y="30.27" width="137.9" height="23.46"/><rect class="cls-1" x="702.11" y="30.27" width="137.9" height="23.46"/><rect class="cls-3" x="1402.13" y="30.27" width="137.9" height="23.46"/><rect class="cls-1" x="1310.02" y="129.92" width="224.53" height="224.53"/><rect class="cls-1" x="1310.02" y="386.08" width="224.53" height="224.53"/><rect class="cls-1" x="1310.02" y="642.24" width="224.53" height="224.53"/><circle class="cls-3" cx="795.44" cy="575.39" r="129.05"/><path class="cls-3" d="M612.64,575.39a182.63,182.63,0,0,1,220.6-178.51c-13.69-87.24-89.18-154-180.27-154a182.51,182.51,0,0,0-38.11,361A183.53,183.53,0,0,1,612.64,575.39Z"/></g></g></svg>