<svg xmlns="http://www.w3.org/2000/svg" viewBox="0 0 1587.5 1333"><defs><style>.cls-1{fill:#42424c;}.cls-2{fill:#555560;}.cls-3{fill:#ec71e5;}</style></defs><g id="Layer_2" data-name="Layer 2"><g id="Layer_1-2" data-name="Layer 1"><rect class="cls-1" x="280.77" width="1306.73" height="1333"/><rect class="cls-2" width="369.5" height="1333"/><circle class="cls-3" cx="42.5" cy="42" r="17"/><circle class="cls-3" cx="91.5" cy="42" r="17"/><circle class="cls-3" cx="140.5" cy="42" r="17"/><rect class="cls-1" x="36.86" y="187" width="243.9" height="30.15"/><rect class="cls-1" x="37.29" y="239.98" width="295.77" height="30.15"/><rect class="cls-1" x="37.72" y="292.97" width="271.34" height="30.15"/><rect class="cls-1" x="38.15" y="345.95" width="156.89" height="30.15"/><rect class="cls-1" x="38.58" y="398.94" width="246.48" height="30.15"/><rect class="cls-1" x="39.01" y="451.92" width="277.77" height="30.15"/><rect class="cls-1" x="39.44" y="504.9" width="263.62" height="30.15"/><rect class="cls-1" x="39.86" y="557.89" width="280.34" height="30.15"/><rect class="cls-1" x="40.29" y="610.87" width="295.77" height="30.15"/><rect class="cls-1" x="40.72" y="663.85" width="216.9" height="30.15"/><rect class="cls-2" x="468.5" y="187" width="661" height="30"/><rect class="cls-2" x="590.5" y="240" width="899" height="30"/><rect class="cls-2" x="590.5" y="293" width="661" height="30"/><rect class="cls-2" x="713.5" y="346" width="690" height="30"/><rect class="cls-2" x="590.5" y="399" width="327" height="30"/><rect class="cls-2" x="468.5" y="452" width="734" height="30"/><rect class="cls-2" x="590.5" y="505" width="688" height="30"/><rect class="cls-2" x="713.5" y="558" width="776" height="30"/><rect class="cls-2" x="829.5" y="611" width="537" height="30"/><rect class="cls-2" x="713.5" y="664" width="701" height="30"/><rect class="cls-2" x="713.5" y="717" width="495" height="30"/><rect class="cls-2" x="713.5" y="770" width="428" height="30"/><rect class="cls-2" x="590.5" y="823" width="688" height="30"/><rect class="cls-2" x="468.5" y="876" width="858" height="30"/><rect class="cls-2" x="468.5" y="929" width="912" height="30"/><rect class="cls-2" x="590.5" y="982" width="712" height="30"/><rect class="cls-2" x="590.5" y="1035" width="767" height="30"/><rect class="cls-2" x="468.5" y="1088" width="352" height="30"/></g></g></svg>